<mxfile host="app.diagrams.net" modified="2023-08-25T17:08:17.559Z" agent="Mozilla/5.0 (X11; Linux x86_64; rv:103.0) Gecko/20100101 Firefox/103.0" etag="4OdkfRdMsnASw2TPmf9j" version="21.6.9" type="github">
  <diagram id="R2lEEEUBdFMjLlhIrx00" name="Page-1">
    <mxGraphModel dx="1434" dy="718" grid="1" gridSize="10" guides="1" tooltips="1" connect="1" arrows="1" fold="1" page="1" pageScale="1" pageWidth="850" pageHeight="1100" math="0" shadow="0" extFonts="Permanent Marker^https://fonts.googleapis.com/css?family=Permanent+Marker">
      <root>
        <mxCell id="0" />
        <mxCell id="1" parent="0" />
        <mxCell id="9gDdSIYp6ClTfo0geJ2M-3" style="edgeStyle=orthogonalEdgeStyle;rounded=0;orthogonalLoop=1;jettySize=auto;html=1;exitX=1;exitY=0.5;exitDx=0;exitDy=0;" edge="1" parent="1" source="9gDdSIYp6ClTfo0geJ2M-1">
          <mxGeometry relative="1" as="geometry">
            <mxPoint x="230" y="120" as="targetPoint" />
          </mxGeometry>
        </mxCell>
        <mxCell id="9gDdSIYp6ClTfo0geJ2M-1" value="BERÇARIA" style="swimlane;whiteSpace=wrap;html=1;" vertex="1" parent="1">
          <mxGeometry x="20" y="60" width="130" height="120" as="geometry" />
        </mxCell>
        <mxCell id="9gDdSIYp6ClTfo0geJ2M-5" style="edgeStyle=orthogonalEdgeStyle;rounded=0;orthogonalLoop=1;jettySize=auto;html=1;exitX=1;exitY=0.5;exitDx=0;exitDy=0;" edge="1" parent="1" source="9gDdSIYp6ClTfo0geJ2M-4" target="9gDdSIYp6ClTfo0geJ2M-6">
          <mxGeometry relative="1" as="geometry">
            <mxPoint x="390" y="120" as="targetPoint" />
          </mxGeometry>
        </mxCell>
        <mxCell id="9gDdSIYp6ClTfo0geJ2M-4" value="TER" style="rhombus;whiteSpace=wrap;html=1;" vertex="1" parent="1">
          <mxGeometry x="230" y="90" width="80" height="60" as="geometry" />
        </mxCell>
        <mxCell id="9gDdSIYp6ClTfo0geJ2M-13" style="edgeStyle=orthogonalEdgeStyle;rounded=0;orthogonalLoop=1;jettySize=auto;html=1;exitX=0.25;exitY=1;exitDx=0;exitDy=0;" edge="1" parent="1" source="9gDdSIYp6ClTfo0geJ2M-6">
          <mxGeometry relative="1" as="geometry">
            <mxPoint x="280" y="250" as="targetPoint" />
          </mxGeometry>
        </mxCell>
        <mxCell id="9gDdSIYp6ClTfo0geJ2M-6" value="BEBÊ" style="swimlane;whiteSpace=wrap;html=1;" vertex="1" parent="1">
          <mxGeometry x="420" y="55" width="120" height="130" as="geometry" />
        </mxCell>
        <mxCell id="9gDdSIYp6ClTfo0geJ2M-8" value="DATA DE N" style="text;html=1;align=center;verticalAlign=middle;resizable=0;points=[];autosize=1;strokeColor=none;fillColor=none;" vertex="1" parent="9gDdSIYp6ClTfo0geJ2M-6">
          <mxGeometry x="-10" y="45" width="80" height="30" as="geometry" />
        </mxCell>
        <mxCell id="9gDdSIYp6ClTfo0geJ2M-9" value="PESO" style="text;html=1;align=center;verticalAlign=middle;resizable=0;points=[];autosize=1;strokeColor=none;fillColor=none;" vertex="1" parent="9gDdSIYp6ClTfo0geJ2M-6">
          <mxGeometry x="-10" y="65" width="60" height="30" as="geometry" />
        </mxCell>
        <mxCell id="9gDdSIYp6ClTfo0geJ2M-10" value="ALTURA" style="text;html=1;align=center;verticalAlign=middle;resizable=0;points=[];autosize=1;strokeColor=none;fillColor=none;" vertex="1" parent="9gDdSIYp6ClTfo0geJ2M-6">
          <mxGeometry x="-10" y="85" width="70" height="30" as="geometry" />
        </mxCell>
        <mxCell id="9gDdSIYp6ClTfo0geJ2M-7" value="NOME" style="text;html=1;align=center;verticalAlign=middle;resizable=0;points=[];autosize=1;strokeColor=none;fillColor=none;" vertex="1" parent="1">
          <mxGeometry x="410" y="78" width="60" height="30" as="geometry" />
        </mxCell>
        <mxCell id="9gDdSIYp6ClTfo0geJ2M-11" value="1" style="text;html=1;align=center;verticalAlign=middle;resizable=0;points=[];autosize=1;strokeColor=none;fillColor=none;" vertex="1" parent="1">
          <mxGeometry x="145" y="88" width="30" height="30" as="geometry" />
        </mxCell>
        <mxCell id="9gDdSIYp6ClTfo0geJ2M-12" value="N" style="text;html=1;align=center;verticalAlign=middle;resizable=0;points=[];autosize=1;strokeColor=none;fillColor=none;" vertex="1" parent="1">
          <mxGeometry x="355" y="88" width="30" height="30" as="geometry" />
        </mxCell>
        <mxCell id="9gDdSIYp6ClTfo0geJ2M-16" style="edgeStyle=orthogonalEdgeStyle;rounded=0;orthogonalLoop=1;jettySize=auto;html=1;exitX=0.5;exitY=1;exitDx=0;exitDy=0;entryX=0.5;entryY=0;entryDx=0;entryDy=0;" edge="1" parent="1" source="9gDdSIYp6ClTfo0geJ2M-14" target="9gDdSIYp6ClTfo0geJ2M-15">
          <mxGeometry relative="1" as="geometry" />
        </mxCell>
        <mxCell id="9gDdSIYp6ClTfo0geJ2M-21" style="edgeStyle=orthogonalEdgeStyle;rounded=0;orthogonalLoop=1;jettySize=auto;html=1;exitX=1;exitY=0.5;exitDx=0;exitDy=0;" edge="1" parent="1" source="9gDdSIYp6ClTfo0geJ2M-14">
          <mxGeometry relative="1" as="geometry">
            <mxPoint x="640" y="340" as="targetPoint" />
          </mxGeometry>
        </mxCell>
        <mxCell id="9gDdSIYp6ClTfo0geJ2M-14" value="PARIR" style="rhombus;whiteSpace=wrap;html=1;" vertex="1" parent="1">
          <mxGeometry x="240" y="250" width="80" height="40" as="geometry" />
        </mxCell>
        <mxCell id="9gDdSIYp6ClTfo0geJ2M-15" value="MÃE" style="swimlane;whiteSpace=wrap;html=1;" vertex="1" parent="1">
          <mxGeometry x="220" y="350" width="120" height="140" as="geometry" />
        </mxCell>
        <mxCell id="9gDdSIYp6ClTfo0geJ2M-18" value="ENDEREÇO" style="text;html=1;align=center;verticalAlign=middle;resizable=0;points=[];autosize=1;strokeColor=none;fillColor=none;" vertex="1" parent="9gDdSIYp6ClTfo0geJ2M-15">
          <mxGeometry x="-10" y="50" width="90" height="30" as="geometry" />
        </mxCell>
        <mxCell id="9gDdSIYp6ClTfo0geJ2M-19" value="TELEFONE" style="text;html=1;align=center;verticalAlign=middle;resizable=0;points=[];autosize=1;strokeColor=none;fillColor=none;" vertex="1" parent="9gDdSIYp6ClTfo0geJ2M-15">
          <mxGeometry x="-10" y="78" width="90" height="30" as="geometry" />
        </mxCell>
        <mxCell id="9gDdSIYp6ClTfo0geJ2M-20" value="DATA DE N" style="text;html=1;align=center;verticalAlign=middle;resizable=0;points=[];autosize=1;strokeColor=none;fillColor=none;" vertex="1" parent="9gDdSIYp6ClTfo0geJ2M-15">
          <mxGeometry x="-5" y="100" width="80" height="30" as="geometry" />
        </mxCell>
        <mxCell id="9gDdSIYp6ClTfo0geJ2M-17" value="NOME" style="text;html=1;align=center;verticalAlign=middle;resizable=0;points=[];autosize=1;strokeColor=none;fillColor=none;" vertex="1" parent="1">
          <mxGeometry x="210" y="378" width="60" height="30" as="geometry" />
        </mxCell>
        <mxCell id="9gDdSIYp6ClTfo0geJ2M-23" style="edgeStyle=orthogonalEdgeStyle;rounded=0;orthogonalLoop=1;jettySize=auto;html=1;exitX=0.5;exitY=0;exitDx=0;exitDy=0;" edge="1" parent="1" source="9gDdSIYp6ClTfo0geJ2M-22">
          <mxGeometry relative="1" as="geometry">
            <mxPoint x="640" y="340" as="targetPoint" />
          </mxGeometry>
        </mxCell>
        <mxCell id="9gDdSIYp6ClTfo0geJ2M-22" value="MÉDICO" style="swimlane;whiteSpace=wrap;html=1;" vertex="1" parent="1">
          <mxGeometry x="570" y="350" width="140" height="120" as="geometry" />
        </mxCell>
        <mxCell id="9gDdSIYp6ClTfo0geJ2M-26" value="TELEFONE" style="text;html=1;align=center;verticalAlign=middle;resizable=0;points=[];autosize=1;strokeColor=none;fillColor=none;" vertex="1" parent="9gDdSIYp6ClTfo0geJ2M-22">
          <mxGeometry x="-10" y="63" width="90" height="30" as="geometry" />
        </mxCell>
        <mxCell id="9gDdSIYp6ClTfo0geJ2M-27" value="ESPECIALIDADE" style="text;html=1;align=center;verticalAlign=middle;resizable=0;points=[];autosize=1;strokeColor=none;fillColor=none;" vertex="1" parent="9gDdSIYp6ClTfo0geJ2M-22">
          <mxGeometry x="-10" y="85" width="120" height="30" as="geometry" />
        </mxCell>
        <mxCell id="9gDdSIYp6ClTfo0geJ2M-24" value="CRM" style="text;html=1;align=center;verticalAlign=middle;resizable=0;points=[];autosize=1;strokeColor=none;fillColor=none;" vertex="1" parent="1">
          <mxGeometry x="565" y="368" width="50" height="30" as="geometry" />
        </mxCell>
        <mxCell id="9gDdSIYp6ClTfo0geJ2M-25" value="NOME" style="text;html=1;align=center;verticalAlign=middle;resizable=0;points=[];autosize=1;strokeColor=none;fillColor=none;" vertex="1" parent="1">
          <mxGeometry x="560" y="388" width="60" height="30" as="geometry" />
        </mxCell>
        <mxCell id="9gDdSIYp6ClTfo0geJ2M-29" value="1" style="text;html=1;align=center;verticalAlign=middle;resizable=0;points=[];autosize=1;strokeColor=none;fillColor=none;" vertex="1" parent="1">
          <mxGeometry x="605" y="308" width="30" height="30" as="geometry" />
        </mxCell>
        <mxCell id="9gDdSIYp6ClTfo0geJ2M-30" value="1" style="text;html=1;align=center;verticalAlign=middle;resizable=0;points=[];autosize=1;strokeColor=none;fillColor=none;" vertex="1" parent="1">
          <mxGeometry x="285" y="318" width="30" height="30" as="geometry" />
        </mxCell>
        <mxCell id="9gDdSIYp6ClTfo0geJ2M-31" value="1" style="text;html=1;align=center;verticalAlign=middle;resizable=0;points=[];autosize=1;strokeColor=none;fillColor=none;" vertex="1" parent="1">
          <mxGeometry x="285" y="218" width="30" height="30" as="geometry" />
        </mxCell>
      </root>
    </mxGraphModel>
  </diagram>
</mxfile>
